<?xml version="1.0" encoding="utf-8"?>

<!DOCTYPE svg PUBLIC "-//W3C//DTD SVG 1.1//EN" "http://www.w3.org/Graphics/SVG/1.1/DTD/svg11.dtd">
<!-- Uploaded to: SVG Repo, www.svgrepo.com, Generator: SVG Repo Mixer Tools -->
<svg height="800px" width="800px" version="1.1" id="_x32_" xmlns="http://www.w3.org/2000/svg" xmlns:xlink="http://www.w3.org/1999/xlink" 
	 viewBox="0 0 512 512"  xml:space="preserve">

<g>
	<path class="st0" d="M510.384,421.76c-1.024-3.093-2.423-6.007-4.125-8.833l-1.427-2.38l-1.774-1.485
		c-1.24-1.284-11.061-12.418-23.91-46.496c-13.672-36.256-30.748-98.342-45.054-201.428h-0.015
		c-4.687-44.945-25.988-84.972-57.629-113.744C344.708,18.493,302.337,0.819,256.014,0.833
		c-46.337-0.014-88.708,17.66-120.464,46.561c-31.627,28.772-52.943,68.799-57.615,113.744h-0.014
		C62.677,270.945,44.29,334.242,30.228,369.329c-7.024,17.552-12.951,28.036-16.787,33.79c-1.904,2.884-3.288,4.586-4.024,5.437
		c-0.259,0.289-0.404,0.448-0.49,0.534l-1.745,1.456l-1.428,2.38c-1.701,2.826-3.1,5.74-4.11,8.833
		C0.62,424.839,0,428.142,0,431.574c-0.014,4.074,0.952,8.278,2.726,11.862c1.543,3.159,3.62,5.798,5.826,7.91
		c3.908,3.692,8.077,5.899,12.115,7.528c6.071,2.401,12.1,3.547,17.868,4.276c5.74,0.699,11.206,0.901,15.821,0.916
		c0.663-0.015,1.312-0.015,1.946-0.015l0.116-0.014h0.043h0.202c2.466,0.014,4.182,0.332,5.667,0.814
		c1.298,0.426,2.452,0.988,3.678,1.781c2.134,1.37,4.528,3.577,7.326,6.685c2.091,2.3,4.399,5.069,7.095,8.048
		c2.034,2.228,4.284,4.6,6.908,6.936c3.922,3.497,8.754,6.973,14.652,9.482c5.884,2.531,12.749,3.981,20.076,3.966
		c5.494,0,10.672-0.707,15.402-2.034c4.139-1.153,7.918-2.79,11.263-4.658c5.87-3.289,10.355-7.24,14.032-10.744
		c2.755-2.639,5.077-5.062,7.182-7.081c1.572-1.514,3.014-2.798,4.355-3.851c2.034-1.557,3.793-2.603,5.798-3.36
		c2.019-0.736,4.384-1.254,7.946-1.268c2.351,0.014,4.01,0.353,5.524,0.879c1.327,0.476,2.566,1.125,3.937,2.062
		c2.365,1.637,5.062,4.298,8.09,7.845c2.279,2.639,4.745,5.733,7.557,9.035c4.226,4.925,9.287,10.42,16.383,14.963
		c3.533,2.25,7.586,4.211,12.056,5.559c4.471,1.348,9.345,2.07,14.422,2.07c5.884,0.014,11.509-0.98,16.542-2.762
		c4.413-1.564,8.35-3.706,11.754-6.086c6-4.19,10.47-9.014,14.264-13.413c2.856-3.31,5.322-6.425,7.614-9.093
		c3.433-4.045,6.432-6.958,9.028-8.581c1.312-0.836,2.524-1.399,3.88-1.81c1.341-0.397,2.856-0.67,4.889-0.67
		c2.754,0,4.788,0.331,6.49,0.807c1.5,0.419,2.769,0.967,4.052,1.681c2.221,1.247,4.558,3.108,7.326,5.79
		c2.091,1.991,4.399,4.384,7.125,7.016c2.048,1.976,4.34,4.06,6.98,6.122c3.966,3.087,8.811,6.101,14.566,8.243
		c5.754,2.149,12.33,3.353,19.426,3.338c5.668,0,11.061-0.837,15.936-2.423c4.268-1.37,8.133-3.274,11.494-5.437
		c5.899-3.808,10.298-8.249,13.931-12.23c2.712-2.992,5.034-5.768,7.154-8.105c1.586-1.759,3.043-3.259,4.399-4.478
		c2.047-1.831,3.778-2.978,5.552-3.75c1.802-0.758,3.75-1.262,6.936-1.291l0.26,0.014h0.1h0.101c0.548,0,1.168,0,1.846,0
		c4.01,0,8.682-0.158,13.615-0.656c3.706-0.382,7.556-0.959,11.45-1.861c2.928-0.685,5.899-1.557,8.87-2.762
		c2.235-0.909,4.485-2.005,6.735-3.425c3.332-2.127,6.735-5.04,9.403-9.179c1.326-2.056,2.437-4.398,3.172-6.894
		c0.736-2.495,1.096-5.127,1.096-7.701C512,428.142,511.38,424.853,510.384,421.76z M468.562,430.513
		c-3.692,0.411-7.586,0.555-10.903,0.555c-0.519,0-1.067-0.014-1.644-0.014c-0.216,0-0.418,0-0.663,0
		c-5.653-0.015-11.018,0.837-15.878,2.423c-4.254,1.384-8.076,3.303-11.422,5.466c-5.855,3.822-10.196,8.242-13.801,12.215
		c-2.712,2.978-5.019,5.74-7.124,8.069c-1.587,1.738-3.044,3.238-4.399,4.449c-2.062,1.831-3.808,2.986-5.639,3.764
		c-1.846,0.772-3.88,1.298-7.139,1.313c-2.755,0-4.803-0.332-6.505-0.794c-1.5-0.433-2.769-0.973-4.052-1.687
		c-2.221-1.24-4.543-3.115-7.326-5.783c-2.091-1.99-4.399-4.398-7.124-7.024c-2.048-1.975-4.327-4.066-6.98-6.128
		c-3.967-3.086-8.798-6.093-14.566-8.235c-5.754-2.149-12.316-3.346-19.412-3.331c-5.884-0.007-11.508,0.981-16.541,2.769
		c-4.414,1.557-8.35,3.692-11.768,6.078c-6,4.204-10.47,9.014-14.263,13.412c-2.842,3.31-5.322,6.425-7.6,9.1
		c-3.433,4.038-6.432,6.951-9.042,8.574c-1.313,0.836-2.524,1.398-3.866,1.802c-1.341,0.418-2.87,0.67-4.889,0.67
		c-2.365-0.008-4.024-0.346-5.538-0.872c-1.327-0.476-2.566-1.111-3.922-2.062c-2.38-1.637-5.077-4.298-8.106-7.839
		c-2.278-2.646-4.73-5.74-7.542-9.035c-4.24-4.918-9.302-10.427-16.398-14.963c-3.533-2.257-7.572-4.218-12.056-5.567
		c-4.471-1.348-9.345-2.069-14.408-2.069c-5.494,0-10.672,0.7-15.402,2.026c-4.139,1.161-7.918,2.79-11.264,4.665
		c-5.869,3.288-10.354,7.24-14.032,10.73c-2.754,2.646-5.076,5.076-7.182,7.096c-1.572,1.514-3.014,2.798-4.356,3.836
		c-2.034,1.58-3.793,2.61-5.797,3.36c-2.02,0.743-4.384,1.262-7.946,1.27c-2.524,0-4.312-0.332-5.841-0.823
		c-1.342-0.439-2.51-0.994-3.764-1.802c-2.164-1.37-4.557-3.584-7.355-6.67c-2.091-2.286-4.384-5.041-7.066-8.004
		c-2.005-2.228-4.24-4.579-6.851-6.915c-3.878-3.505-8.667-6.98-14.536-9.504c-5.856-2.545-12.692-4.001-19.988-3.98
		c-0.174,0-0.462,0-0.837,0c-0.476,0.014-0.966,0.014-1.471,0.014c-3.13,0-6.764-0.129-10.269-0.49
		c-2.61-0.274-5.163-0.663-7.312-1.168c-0.519-0.122-1.009-0.245-1.485-0.382c1.586-1.918,3.475-4.406,5.639-7.665
		c7.96-12.014,19.498-34.093,32.016-74.063c12.519-39.97,26.017-97.858,37.656-181.62l0.043-0.303l0.029-0.318
		c3.707-36.84,21.099-69.613,47.088-93.251c25.987-23.622,60.354-37.979,98.254-37.986c37.886,0.007,72.267,14.364,98.256,37.986
		c25.959,23.638,43.351,56.411,47.072,93.251l0.029,0.318l0.043,0.303c15.532,111.668,34.324,177.372,49.755,215.914
		c7.715,19.275,14.609,31.764,19.916,39.768c2.163,3.259,4.038,5.739,5.638,7.658C474.489,429.641,471.605,430.189,468.562,430.513z
		"/>
	<path class="st0" d="M211.812,184.617c-11.696,0-21.2,9.489-21.2,21.2c0,11.718,9.504,21.214,21.2,21.214
		c11.71,0,21.214-9.496,21.214-21.214C233.026,194.105,223.522,184.617,211.812,184.617z"/>
	<path class="st0" d="M295.285,184.617c-11.711,0-21.2,9.489-21.2,21.2c0,11.718,9.489,21.214,21.2,21.214
		c11.71,0,21.2-9.496,21.2-21.214C316.485,194.105,306.995,184.617,295.285,184.617z"/>
</g>
</svg>