<svg width="140" height="118" viewBox="0 0 140 118" fill="none" xmlns="http://www.w3.org/2000/svg">
<g clip-path="url(#clip0_85_2863)">
<path d="M31.2646 53.1821L36.9756 0.128906L59.9116 65.263L54.0624 117.848L31.2646 53.1821Z" fill="white"/>
<path d="M84.1371 68.9155L87.9598 33.4219L113.291 82.4012L109.514 117.661L84.1371 68.9155Z" fill="white"/>
<path d="M9.98672 20.5448L1.00578 104.081H1.05183L0.959717 105.018C1.05183 120.517 22.0074 122.858 25.3695 107.734L25.5076 106.797V106.75L37.0217 0.0820902H37.0677L35.7321 -0.011552C23.8036 -0.667108 13.1185 7.38686 10.3091 19.1869L9.98672 20.5448Z" fill="white" stroke="white" stroke-width="0.25" stroke-miterlimit="10"/>
<path d="M139.082 73.1298L136.549 97.198L136.273 98.5091C133.463 110.309 122.778 118.363 110.85 117.708L109.514 117.614L114.534 71.3036L114.672 70.3671C118.034 55.2425 138.99 57.6306 139.082 73.1298Z" fill="white" stroke="white" stroke-width="0.25" stroke-miterlimit="10"/>
<path d="M87.9597 33.4219L81.0513 97.4323L80.775 98.7434C77.9656 110.543 67.2805 118.597 55.352 117.942L54.0164 117.848L60.9248 53.8378L61.2011 52.5267C64.0105 40.7267 74.6956 32.6727 86.6241 33.3283L87.9597 33.4219Z" fill="white" stroke="white" stroke-width="0.25" stroke-miterlimit="10"/>
</g>
<defs>
<clipPath id="clip0_85_2863">
<rect width="138.122" height="118" fill="white" transform="translate(0.932037)"/>
</clipPath>
</defs>
</svg>
