<svg width="30" height="30" viewBox="0 0 30 30" fill="none" xmlns="http://www.w3.org/2000/svg">
<path fill-rule="evenodd" clip-rule="evenodd" d="M13.75 5C8.91751 5 5 8.91751 5 13.75C5 18.5825 8.91751 22.5 13.75 22.5C18.5825 22.5 22.5 18.5825 22.5 13.75C22.5 8.91751 18.5825 5 13.75 5ZM2.5 13.75C2.5 7.5368 7.5368 2.5 13.75 2.5C19.9632 2.5 25 7.5368 25 13.75C25 19.9632 19.9632 25 13.75 25C7.5368 25 2.5 19.9632 2.5 13.75Z" fill="white"/>
<path fill-rule="evenodd" clip-rule="evenodd" d="M19.9286 19.9286C20.4168 19.4405 21.2082 19.4405 21.6964 19.9286L27.1339 25.3661C27.622 25.8543 27.622 26.6457 27.1339 27.1339C26.6457 27.622 25.8543 27.622 25.3661 27.1339L19.9286 21.6964C19.4405 21.2082 19.4405 20.4168 19.9286 19.9286Z" fill="white"/>
</svg>
